<svg width="200" height="157" viewBox="0 0 200 157" fill="none" xmlns="http://www.w3.org/2000/svg">
<g clip-path="url(#clip0_3364_2921)">
<g clip-path="url(#clip1_3364_2921)">
<path d="M72.7358 17.4605L3.83653 132.591C-2.09572 142.507 5.04559 155.111 16.6056 155.111H183.317C194.877 155.111 202.019 142.507 196.086 132.591L127.205 17.4605C115.096 -3.50244 84.8438 -3.50244 72.7358 17.4605Z" stroke="black" stroke-width="3.47932" stroke-miterlimit="10"/>
<path d="M99.9684 59.5898L44.8125 155.115H155.116L99.9684 59.5898Z" stroke="black" stroke-width="3.47932" stroke-linejoin="round"/>
<path d="M31.0078 155.113H49.4308" stroke="black" stroke-width="3.47932" stroke-linejoin="round"/>
<path d="M150.496 155.113H168.919" stroke="black" stroke-width="3.47932" stroke-linejoin="round"/>
<path d="M100.203 116.898V155.11H129.038L100.203 116.898Z" stroke="black" stroke-width="3.47932" stroke-linejoin="round"/>
<path d="M133.552 133.477L129.038 155.11L100.203 116.898L133.552 133.477Z" stroke="black" stroke-width="3.47932" stroke-linejoin="round"/>
<path d="M100.203 116.903V59.5898" stroke="black" stroke-width="3.47932" stroke-linejoin="round"/>
<path d="M68.7475 31.7349C68.5475 31.7349 68.3474 31.7088 68.1473 31.674C67.956 31.6305 67.7646 31.5783 67.582 31.5C67.3993 31.4218 67.2166 31.3261 67.0601 31.2217C66.8861 31.1086 66.7295 30.9781 66.5903 30.839C66.025 30.2736 65.7031 29.4907 65.7031 28.6905C65.7031 27.8902 66.025 27.1074 66.5903 26.5333C66.7295 26.3941 66.8861 26.2724 67.0601 26.1593C67.2166 26.0462 67.3993 25.9505 67.582 25.8809C67.7646 25.8027 67.956 25.7418 68.1473 25.707C69.139 25.5069 70.1914 25.8288 70.896 26.5333C71.4701 27.1074 71.7919 27.8902 71.7919 28.6905C71.7919 29.4907 71.4701 30.2736 70.896 30.839C70.3306 31.4044 69.5478 31.7349 68.7475 31.7349Z" fill="black"/>
<path d="M151.806 84.3703C150.135 84.1876 148.926 82.6915 149.1 81.0215C149.283 79.3514 150.779 78.1336 152.449 78.3163C154.119 78.4902 155.337 79.9864 155.154 81.6651C154.989 83.2221 153.667 84.3877 152.136 84.3877C152.023 84.3877 151.919 84.379 151.806 84.3703ZM140.533 82.1348C138.923 81.639 138.027 79.9342 138.515 78.325C139.01 76.7158 140.715 75.8199 142.324 76.307C143.925 76.8028 144.83 78.5076 144.334 80.1168C143.934 81.4216 142.733 82.2653 141.428 82.2653C141.133 82.2653 140.828 82.2218 140.533 82.1348ZM129.825 76.968C128.468 75.9677 128.181 74.0628 129.173 72.7146C130.173 71.3576 132.078 71.0706 133.435 72.0622C134.783 73.0625 135.079 74.9674 134.078 76.3157C133.478 77.1333 132.565 77.5595 131.625 77.5595C130.999 77.5595 130.364 77.3682 129.825 76.968ZM122.214 66.9911C121.666 65.408 122.501 63.6683 124.093 63.1204C125.685 62.5637 127.416 63.4074 127.972 64.9992H127.964C128.52 66.5823 127.676 68.3219 126.093 68.8699C125.763 68.983 125.424 69.0352 125.093 69.0352C123.832 69.0352 122.658 68.2523 122.214 66.9911ZM124.128 58.2319C122.466 57.971 121.327 56.4227 121.579 54.7526C121.84 53.0912 123.388 51.9517 125.05 52.2127C126.711 52.4649 127.85 54.0219 127.598 55.6833C127.363 57.1881 126.067 58.2667 124.597 58.2667C124.441 58.2667 124.284 58.2493 124.128 58.2319ZM126.05 47.4547C124.362 47.4286 123.023 46.0456 123.049 44.3668C123.075 42.688 124.458 41.3398 126.137 41.3659C127.816 41.392 129.164 42.775 129.138 44.4538C129.112 46.1239 127.755 47.4547 126.093 47.4547H126.05ZM119.987 37.356C118.639 36.3557 118.343 34.4508 119.335 33.1025C120.335 31.7456 122.24 31.4498 123.597 32.4501C124.954 33.4418 125.241 35.3467 124.249 36.7036C123.649 37.5126 122.727 37.9475 121.788 37.9475C121.161 37.9475 120.535 37.7561 119.987 37.356ZM111.167 32.7807C109.567 32.2414 108.714 30.5104 109.253 28.9186C109.793 27.3268 111.524 26.4744 113.116 27.0137C114.707 27.553 115.56 29.284 115.02 30.8758C114.594 32.1457 113.411 32.9372 112.141 32.9372C111.819 32.9372 111.489 32.8938 111.167 32.7807ZM76.6175 28.388C76.4957 26.7093 77.7656 25.2567 79.4444 25.1436C81.1232 25.0305 82.5758 26.2917 82.6889 27.9705C82.8019 29.6493 81.5407 31.1019 79.8619 31.215C79.7923 31.2237 79.7227 31.2237 79.6532 31.2237C78.0614 31.2237 76.7218 29.9972 76.6175 28.388ZM101.19 30.7627C99.5114 30.6148 98.2762 29.1274 98.4328 27.4573C98.5894 25.7785 100.068 24.5434 101.738 24.7C103.417 24.8565 104.652 26.3352 104.496 28.0053C104.348 29.5884 103.025 30.7801 101.468 30.7801C101.373 30.7801 101.286 30.7801 101.19 30.7627ZM87.5077 27.64C87.4468 25.9612 88.7603 24.5434 90.439 24.4825C92.1178 24.4216 93.5356 25.7351 93.5965 27.4138C93.6574 29.1013 92.344 30.5104 90.6652 30.5713H90.5521C88.9169 30.5713 87.5686 29.284 87.5077 27.64Z" fill="black"/>
<path d="M163.091 84.6754C162.291 84.6754 161.508 84.3536 160.943 83.7882C160.369 83.2228 160.047 82.44 160.047 81.631C160.047 81.4397 160.064 81.2396 160.108 81.0395C160.151 80.8482 160.203 80.6568 160.282 80.4742C160.36 80.2915 160.456 80.1088 160.56 79.9436C160.673 79.7783 160.804 79.6217 160.943 79.4825C161.647 78.778 162.7 78.4475 163.691 78.6475C163.883 78.691 164.074 78.7519 164.257 78.8215C164.44 78.8998 164.613 78.9954 164.779 79.0998C164.953 79.2129 165.101 79.3434 165.248 79.4825C165.388 79.6217 165.509 79.7783 165.622 79.9436C165.736 80.1088 165.831 80.2915 165.901 80.4742C165.979 80.6568 166.04 80.8482 166.075 81.0395C166.118 81.2396 166.136 81.4397 166.136 81.631C166.136 82.44 165.814 83.2228 165.248 83.7882C165.101 83.9274 164.953 84.0579 164.779 84.1622C164.613 84.2753 164.44 84.371 164.257 84.4493C164.074 84.5189 163.883 84.5798 163.691 84.6232C163.491 84.658 163.291 84.6754 163.091 84.6754Z" fill="black"/>
<path d="M127.837 99.6212C127.646 99.6212 127.446 99.5951 127.246 99.5603C127.055 99.5168 126.863 99.4646 126.672 99.3863C126.489 99.3081 126.315 99.2124 126.15 99.108C125.985 98.9949 125.828 98.8644 125.689 98.7253C125.124 98.1599 124.793 97.377 124.793 96.5768C124.793 96.3767 124.819 96.1767 124.854 95.9766C124.897 95.7852 124.95 95.5939 125.028 95.4112C125.106 95.2286 125.202 95.0459 125.306 94.8806C125.419 94.7154 125.55 94.5588 125.689 94.4196C125.828 94.2804 125.985 94.15 126.15 94.0456C126.315 93.9325 126.489 93.8368 126.672 93.7672C126.863 93.689 127.055 93.6281 127.246 93.5933C127.637 93.5063 128.046 93.515 128.438 93.5933C128.629 93.6281 128.82 93.689 129.003 93.7672C129.186 93.8368 129.368 93.9325 129.534 94.0456C129.699 94.15 129.855 94.2804 129.995 94.4196C130.134 94.5588 130.264 94.7154 130.369 94.8806C130.482 95.0459 130.577 95.2286 130.656 95.4112C130.725 95.5939 130.786 95.7852 130.83 95.9766C130.864 96.1767 130.882 96.3767 130.882 96.5768C130.882 97.377 130.56 98.1599 129.995 98.7253C129.855 98.8644 129.699 98.9949 129.534 99.108C129.368 99.2124 129.186 99.3081 129.003 99.3863C128.82 99.4646 128.629 99.5168 128.438 99.5603C128.237 99.5951 128.037 99.6212 127.837 99.6212Z" fill="black"/>
<path d="M135.778 96.5207C135.752 94.8332 137.082 93.4415 138.761 93.4067C140.44 93.3719 141.832 94.7114 141.867 96.3902C141.901 98.069 140.57 99.4607 138.892 99.4955H138.831C137.169 99.4955 135.821 98.1734 135.778 96.5207ZM146.764 96.2336C146.694 94.5549 147.999 93.137 149.678 93.0674C151.356 92.9892 152.774 94.2939 152.844 95.9814C152.922 97.6601 151.617 99.078 149.939 99.1476C149.895 99.1476 149.852 99.1563 149.808 99.1563C148.181 99.1476 146.833 97.8689 146.764 96.2336ZM157.732 95.7204C157.637 94.0417 158.915 92.5977 160.594 92.5021C162.273 92.3977 163.717 93.6763 163.812 95.3551C163.917 97.0339 162.638 98.4778 160.959 98.5735C160.898 98.5735 160.838 98.5735 160.777 98.5735C159.176 98.5735 157.837 97.3296 157.732 95.7117V95.7204Z" fill="black"/>
<path d="M171.748 97.8544C170.947 97.8544 170.164 97.5238 169.599 96.9584C169.451 96.8193 169.329 96.6627 169.216 96.4974C169.103 96.3322 169.016 96.1495 168.938 95.9668C168.86 95.7842 168.799 95.5928 168.764 95.4014C168.721 95.2014 168.703 95.0013 168.703 94.81C168.703 94.001 169.025 93.2182 169.599 92.6528C170.73 91.522 172.765 91.522 173.896 92.6528C174.47 93.2182 174.792 94.001 174.792 94.81C174.792 95.0013 174.775 95.2014 174.731 95.4014C174.696 95.5928 174.635 95.7842 174.557 95.9668C174.479 96.1495 174.392 96.3322 174.279 96.4974C174.166 96.6627 174.044 96.8193 173.896 96.9584C173.331 97.5238 172.548 97.8544 171.748 97.8544Z" fill="black"/>
<path d="M43.7632 73.012C43.5631 73.012 43.363 72.9946 43.163 72.9598C42.9716 72.9163 42.7802 72.8554 42.5976 72.7858C42.4062 72.7076 42.2323 72.6119 42.067 72.4988C41.9017 72.3944 41.7451 72.2639 41.606 72.1248C41.4668 71.9856 41.3363 71.829 41.2233 71.6638C41.1189 71.4985 41.0232 71.3158 40.9449 71.1332C40.8753 70.9505 40.8144 70.7591 40.7709 70.5678C40.7361 70.3677 40.7188 70.1677 40.7188 69.9676C40.7188 69.7675 40.7361 69.5762 40.7709 69.3761C40.8144 69.1848 40.8753 68.9934 40.9449 68.8107C41.0232 68.6194 41.1189 68.4454 41.2233 68.2801C41.3363 68.1149 41.4668 67.9583 41.606 67.8191C41.7451 67.6799 41.9017 67.5495 42.067 67.4451C42.2323 67.332 42.4062 67.2363 42.5976 67.158C42.7802 67.0885 42.9716 67.0276 43.163 66.9841C44.1546 66.7927 45.2071 67.1146 45.9116 67.8191C46.0508 67.9583 46.1813 68.1149 46.2944 68.2801C46.3987 68.4454 46.4944 68.6194 46.5727 68.8107C46.6423 68.9934 46.7032 69.1848 46.7467 69.3761C46.7815 69.5762 46.7989 69.7762 46.7989 69.9676C46.7989 70.159 46.7815 70.3677 46.7467 70.5678C46.7032 70.7591 46.6423 70.9505 46.5727 71.1332C46.4944 71.3158 46.3987 71.4985 46.2944 71.6638C46.1813 71.829 46.0508 71.9856 45.9116 72.1248C45.3462 72.6902 44.5634 73.012 43.7632 73.012Z" fill="black"/>
<path d="M64.3268 84.9616C63.7266 83.3872 64.5182 81.6302 66.0926 81.0387C67.667 80.4385 69.424 81.2301 70.0155 82.7958C70.6157 84.3701 69.8242 86.1272 68.2498 86.7274C67.8931 86.8579 67.5365 86.9274 67.1712 86.9274C65.9447 86.9274 64.7878 86.1794 64.3268 84.9616ZM66.1448 75.4022C64.7965 74.3932 64.5182 72.4883 65.5272 71.14C66.5362 69.7918 68.4411 69.5221 69.7894 70.5311C71.1376 71.5314 71.4072 73.4451 70.3982 74.7933C69.8068 75.5849 68.8847 76.0111 67.9627 76.0111C67.3277 76.0111 66.6841 75.811 66.1448 75.4022ZM55.8895 73.2189C54.2194 73.1058 52.9408 71.6619 53.0538 69.9832C53.1582 68.3044 54.6021 67.0344 56.2809 67.1388C57.9597 67.2519 59.2383 68.6958 59.1253 70.3746C59.0209 71.9838 57.6813 73.2276 56.0895 73.2276C56.0287 73.2276 55.9591 73.2189 55.8895 73.2189Z" fill="black"/>
<path d="M77.5796 92.3216C77.3795 92.3216 77.1794 92.3042 76.9794 92.2607C76.788 92.2259 76.5966 92.165 76.414 92.0867C76.2313 92.0171 76.0487 91.9215 75.8834 91.8084C75.7181 91.704 75.5616 91.5735 75.4224 91.4344C74.857 90.869 74.5352 90.0774 74.5352 89.2772C74.5352 88.4769 74.857 87.6941 75.4224 87.1287C76.5532 85.9892 78.5973 85.9979 79.728 87.1287C79.8672 87.2679 79.9977 87.4244 80.1108 87.5897C80.2151 87.755 80.3108 87.9289 80.3891 88.1116C80.4674 88.2943 80.5196 88.4856 80.5631 88.6857C80.5979 88.8771 80.624 89.0771 80.624 89.2772C80.624 89.4772 80.5979 89.6773 80.5631 89.8774C80.5196 90.0687 80.4674 90.2601 80.3891 90.4427C80.3108 90.6254 80.2151 90.8081 80.1108 90.9733C79.9977 91.1386 79.8672 91.2952 79.728 91.4344C79.5889 91.5735 79.4323 91.704 79.267 91.8084C79.1018 91.9215 78.9278 92.0171 78.7451 92.0867C78.5538 92.165 78.3624 92.2259 78.171 92.2607C77.971 92.3042 77.7709 92.3216 77.5796 92.3216Z" fill="black"/>
<path d="M8.46094 124.88L34.8081 111.102L50.7608 122.418L70.3232 111.102" stroke="black" stroke-width="3.47932" stroke-miterlimit="10"/>
<path d="M191.12 124.88L164.773 111.102L148.82 122.418L129.258 111.102" stroke="black" stroke-width="3.47932" stroke-miterlimit="10"/>
<path d="M90.957 49.2188L100.177 60.0568L109.397 49.2188" stroke="black" stroke-width="3.47932" stroke-linejoin="round"/>
</g>
</g>
<defs>
<clipPath id="clip0_3364_2921">
<rect width="200" height="157" fill="white"/>
</clipPath>
<clipPath id="clip1_3364_2921">
<rect width="200" height="156.856" fill="white" transform="translate(-0.0351562)"/>
</clipPath>
</defs>
</svg>
